PathFileType	4	(X/Y/Z)	 s03c0402.trc
DataRate	CameraRate	NumFrames	NumMarkers	Units	OrigDataRate	OrigDataStartFrame	OrigNumFrames
200	200	6	50	mm	200	751	2000
Frame#	Time	racr			lacr			c7			jug			rlel			rdr			llel			ldr			s2			lic			ric			lasi			rasi			rpsi			lpsi			rgt			lgt			rth1			rth2			rth3			rth4			rlfc			rmfc			rsh1			rsh2			rsh3			rsh4			rlmal			rcal			rtoe			rmt5			rmt1			lth1			lth2			lth4			lth3			llfc			lmfc			lsh1			lsh2			lsh3			lsh4			llmal			lcal			ltoe			lmt1			lmt5			SBIKE			LBIKE			RBIKE			
		X1	Y1	Z1	X2	Y2	Z2	X3	Y3	Z3	X4	Y4	Z4	X5	Y5	Z5	X6	Y6	Z6	X7	Y7	Z7	X8	Y8	Z8	X9	Y9	Z9	X10	Y10	Z10	X11	Y11	Z11	X12	Y12	Z12	X13	Y13	Z13	X14	Y14	Z14	X15	Y15	Z15	X16	Y16	Z16	X17	Y17	Z17	X18	Y18	Z18	X19	Y19	Z19	X20	Y20	Z20	X21	Y21	Z21	X22	Y22	Z22	X23	Y23	Z23	X24	Y24	Z24	X25	Y25	Z25	X26	Y26	Z26	X27	Y27	Z27	X28	Y28	Z28	X29	Y29	Z29	X30	Y30	Z30	X31	Y31	Z31	X32	Y32	Z32	X33	Y33	Z33	X34	Y34	Z34	X35	Y35	Z35	X36	Y36	Z36	X37	Y37	Z37	X38	Y38	Z38	X39	Y39	Z39	X40	Y40	Z40	X41	Y41	Z41	X42	Y42	Z42	X43	Y43	Z43	X44	Y44	Z44	X45	Y45	Z45	X46	Y46	Z46	X47	Y47	Z47	X48	Y48	Z48	X49	Y49	Z49	X50	Y50	Z50	
751	3.7550	755.695024	1419.069992	-36.590521	740.862460	1462.671608	-374.029478	699.941005	1540.922415	-188.474100	705.138555	1367.349505	-207.279013	612.703955	1199.872293	111.499879	744.275707	976.419834	17.044299	626.674176	1230.365472	-515.642904	737.889368	976.233099	-441.591571	158.116452	1290.083798	-191.521282	328.735320	1319.002390	-378.124238	338.040123	1281.322832	-15.407426	340.359389	1238.196797	-345.562699	358.849617	1211.965129	-69.096497	195.002778	1331.599388	-145.245529	194.621736	1338.893778	-227.117114	271.638507	1179.848639	-10.612722	260.552370	1212.662349	-408.370054	331.826489	1027.913779	-4.804331	391.103192	962.163980	-13.288044	411.778580	880.366928	-27.198059	422.511246	980.059539	-21.231341	451.648290	761.280021	-63.922023	448.642754	749.414894	-178.488130	395.158482	601.537109	-32.925071	386.442134	513.353385	-48.333161	334.993251	441.576608	-46.868555	411.684126	506.438990	-76.379039	275.197397	324.080881	-62.183318	204.264427	291.750568	-91.891052	508.183656	223.573226	-115.613092	392.568219	232.894978	-36.692424	414.091942	247.123653	-152.182793	344.613019	1092.704592	-451.252913	410.253354	1038.122626	-467.225366	439.932189	1056.182245	-456.310358	439.009392	955.576692	-484.762626	506.268488	845.569088	-491.979706	536.355461	821.413978	-355.993669	361.337197	743.416360	-500.398338	311.804946	679.084573	-473.916184	229.032649	645.027297	-458.056900	334.631586	655.215640	-452.855621	126.583771	578.172009	-426.083127	60.692066	603.155389	-373.215666	223.912813	342.028691	-349.607444	159.821456	414.335164	-304.540524	138.618075	422.238779	-431.288883	-215.720229	946.076861	-230.674123	-7.963464	84.329284	-436.667816	-13.786026	80.694769	-36.394606	
752	3.7600	756.014786	1419.599801	-37.218578	739.655908	1463.706775	-374.694752	698.775998	1541.649499	-188.637625	705.267209	1368.087701	-207.801251	613.561984	1199.854138	110.775094	744.905141	975.889817	17.869108	626.627358	1230.224300	-515.548413	738.056857	976.310707	-441.808619	158.092718	1288.859624	-191.328540	328.688752	1317.670495	-376.973894	338.490537	1279.768452	-14.679400	341.127140	1237.680293	-344.117457	359.542388	1210.437393	-68.228661	195.659779	1329.636483	-144.989735	194.233680	1337.759955	-226.524468	270.652946	1177.813698	-10.314613	262.369396	1213.332118	-407.770109	328.250451	1024.981370	-4.186650	386.119601	957.968093	-12.525016	405.054320	875.611340	-26.502636	417.947493	975.223179	-20.358105	442.585712	756.055084	-63.406133	441.229305	744.030063	-177.487578	387.298621	596.048832	-32.250412	380.187622	507.983068	-47.003376	329.234535	435.272443	-46.204363	405.115357	501.184806	-75.666816	270.786414	317.214920	-62.315357	199.948164	285.699660	-92.557600	502.850884	213.427036	-115.897790	387.509146	224.445057	-36.762927	409.104085	238.862525	-152.460387	347.958431	1096.466773	-451.302715	414.446761	1043.122281	-467.629731	443.556355	1060.994855	-455.462724	444.387548	961.191777	-486.140428	512.397317	851.137496	-493.807206	538.144487	825.191899	-360.634978	367.469231	749.110515	-501.762275	317.296512	685.472143	-474.668593	234.247887	652.111900	-458.824124	339.872487	661.600415	-453.367410	130.939042	586.443407	-426.361294	64.728021	610.902026	-373.463234	230.443145	351.295895	-349.535470	173.195763	429.644737	-314.063181	144.375932	430.669961	-431.272328	-215.760007	946.045242	-230.679623	-7.967945	84.323686	-436.659184	-13.798735	80.692000	-36.410013	
753	3.7650	756.327074	1420.444427	-37.808338	738.402805	1464.692592	-375.473251	697.551203	1542.558492	-189.065669	705.306149	1368.891385	-208.649041	614.287912	1200.031050	110.198590	745.403346	975.469552	18.532337	626.490835	1230.143875	-515.629927	738.201790	976.317677	-442.245940	158.251750	1287.293551	-191.044877	328.582007	1316.569326	-376.178948	339.040658	1278.563140	-13.902760	341.912150	1237.410576	-342.698795	360.180241	1209.067398	-67.579021	196.174215	1328.061209	-144.840036	193.244581	1337.214764	-225.506624	269.657656	1175.774082	-10.104023	264.179844	1214.206719	-407.162500	324.580000	1022.173280	-3.628965	380.973834	953.971138	-11.765396	398.134912	871.249224	-25.829062	413.227243	970.358058	-19.438110	433.423613	751.125807	-62.743886	434.083611	738.662910	-175.697780	378.979854	591.107313	-31.759609	372.826998	502.587701	-46.654278	323.253220	429.542395	-45.602087	398.603404	496.235488	-74.337411	266.225553	310.867356	-62.228792	195.373519	280.812674	-92.337302	497.041773	203.732924	-116.026843	381.867082	216.323298	-36.548639	403.622382	230.375676	-152.472321	351.081345	1100.593953	-451.264752	418.485031	1048.295389	-467.859064	447.249053	1066.318040	-455.001596	449.540082	966.972693	-487.277924	518.473004	856.741667	-495.376719	538.921010	828.944535	-365.485240	373.559566	754.881348	-502.819154	322.868731	691.734465	-475.275480	239.576185	659.152798	-459.383508	345.225926	668.018530	-453.692472	135.593405	594.348997	-426.414238	68.642913	618.100719	-373.431946	237.455605	360.533995	-349.613626	179.416203	436.962944	-312.537433	150.627152	438.981979	-431.312254	-215.789916	946.039595	-230.763884	-7.948088	84.299923	-436.662695	-13.777280	80.696922	-36.412970	
754	3.7700	756.417504	1421.371032	-38.445458	737.119974	1465.702571	-376.316383	696.290795	1543.501143	-189.824357	705.158507	1369.691436	-209.415897	615.000142	1200.460800	109.649663	745.691739	975.234420	18.810828	626.271853	1230.093683	-515.889932	738.266143	976.273474	-442.891320	158.026393	1286.284876	-191.630166	328.312966	1315.650603	-375.283704	339.593876	1277.556541	-13.189385	342.652982	1237.454841	-341.452255	360.875769	1207.865676	-67.070708	196.495515	1326.591764	-144.396192	192.937943	1336.447666	-224.772465	268.778608	1173.773983	-9.875917	265.779991	1215.372815	-406.505002	320.878739	1019.569379	-3.098377	375.741516	950.130746	-11.032575	391.099228	867.093179	-25.143415	408.351247	965.986787	-18.485306	424.230591	746.564477	-62.113289	426.431526	733.522135	-174.774372	370.583110	586.715667	-31.061523	365.516612	498.029737	-45.940439	316.822195	424.332985	-45.224674	391.789698	491.918716	-73.427872	261.319020	305.250446	-62.140562	190.361851	276.489109	-92.206054	490.774510	194.161350	-116.116655	375.717365	208.499507	-36.872743	397.892369	222.800010	-152.228570	354.114936	1104.699998	-451.038907	422.128367	1053.630081	-468.246261	450.650147	1071.622761	-454.576899	454.389229	972.831053	-488.202630	524.491910	862.365071	-496.661227	539.673714	832.896495	-369.977828	379.586295	760.763673	-503.531371	328.470021	698.088944	-475.574464	244.988475	666.060148	-459.661592	350.670035	674.424504	-453.864548	140.554283	601.978677	-426.257953	73.008326	624.817851	-373.206762	244.915244	369.318356	-349.421882	186.346631	445.856625	-314.229080	157.337839	446.819181	-431.223525	-215.797104	946.030402	-230.805592	-7.947526	84.286639	-436.688782	-13.776578	80.677064	-36.420665	
755	3.7750	756.526606	1422.499846	-39.048477	735.819900	1466.664909	-377.317312	695.036200	1544.546968	-190.895078	705.036715	1370.604338	-210.158539	615.701849	1201.053624	109.238724	745.778288	975.891341	17.617794	625.949090	1230.131499	-516.441500	738.349084	975.960452	-443.854183	158.377708	1285.005727	-191.305691	327.939152	1315.060490	-374.591469	340.194428	1276.898990	-12.589707	343.398966	1237.793954	-340.553327	362.047412	1207.129516	-66.586626	194.507623	1326.911360	-139.556627	192.738997	1335.846464	-223.716696	267.904671	1171.814161	-9.594580	267.170382	1216.829588	-405.835925	317.097929	1017.274827	-2.654759	370.406079	946.607621	-10.295721	383.922012	863.286111	-24.153261	403.458616	961.666239	-17.541520	414.998225	742.521791	-61.514221	417.126578	728.567975	-174.238039	362.125749	582.576853	-30.373901	358.014721	493.916815	-45.152352	309.951755	419.780495	-44.952205	384.603695	487.960857	-72.413591	256.162881	299.904930	-62.830614	184.708782	273.610010	-91.067386	484.011822	185.173572	-116.189019	369.169472	201.280184	-37.068033	391.240469	214.986760	-152.496578	356.853744	1108.849348	-450.784224	425.634108	1058.779991	-468.209662	453.821048	1076.989614	-454.195352	458.927320	978.608788	-488.954841	530.378658	868.361990	-498.077298	541.391281	837.272388	-373.546113	385.486580	766.831502	-503.906495	334.134828	704.470699	-475.657267	250.502790	672.889942	-459.545088	356.212396	680.725513	-453.932186	145.824076	609.160840	-425.946986	77.634853	631.156479	-372.900528	252.807026	377.637814	-348.983269	193.460327	452.851478	-313.132177	164.396366	453.971119	-430.898917	-215.797893	946.023238	-230.835665	-7.944026	84.288900	-436.692590	-13.779136	80.667054	-36.430196	
756	3.7800	756.541266	1423.954216	-39.711215	734.581713	1467.450120	-378.422602	693.825505	1545.719338	-192.206791	704.747050	1371.561692	-210.874256	616.417266	1201.859761	108.890959	745.656202	975.263165	18.100664	625.420019	1230.176665	-517.204292	738.275719	975.926316	-444.701175	158.910875	1283.955166	-190.324136	327.413959	1314.832606	-374.063731	340.837202	1276.312036	-12.116391	344.030091	1238.200371	-339.524917	362.693454	1206.471834	-66.245826	195.490835	1325.309702	-139.640295	192.889161	1335.267856	-223.137426	267.127052	1169.892116	-9.388672	268.342934	1218.614014	-405.128093	313.228650	1015.100721	-2.308128	365.111498	943.289827	-9.614852	376.809266	859.685649	-23.615618	398.479889	957.645112	-16.663463	405.770141	738.831840	-60.899565	409.341792	724.552335	-173.125079	354.153199	578.736838	-29.964701	350.435498	490.126504	-44.391253	302.834392	415.668901	-44.542996	377.220105	484.311864	-71.448429	250.514027	295.158342	-63.422766	179.251697	270.572735	-90.958234	476.887995	176.483826	-116.332723	362.353667	194.539558	-37.204860	384.887828	208.380106	-152.318338	359.348333	1112.946140	-450.534225	428.765228	1063.841945	-468.251567	456.757543	1082.270618	-453.956412	463.163641	984.224006	-489.391111	536.251346	874.075848	-498.716693	545.062395	842.296822	-375.623468	391.280824	772.863757	-504.004776	339.745609	710.724050	-475.495891	256.018615	679.578290	-459.140393	361.788327	687.094222	-453.773809	151.282207	616.068850	-425.458494	82.519649	636.964897	-372.387613	261.121579	386.806891	-350.407814	200.024542	460.114156	-313.739509	171.873902	461.128514	-430.675115	-215.848353	946.012354	-230.858780	-7.956997	84.265968	-436.702313	-13.794084	80.673933	-36.448463	
